<svg xmlns="http://www.w3.org/2000/svg" width="100" height="94">
    <path fill="#FFF" fill-rule="evenodd" d="M93.75 24.978H73.975c1.419-.972 2.638-1.938 3.487-2.804 5.038-5.089 5.038-13.371 0-18.46-4.893-4.945-13.431-4.951-18.331 0-2.706 2.73-9.9 13.841-8.906 21.264h-.45c.988-7.423-6.2-18.534-8.906-21.264-4.9-4.951-13.438-4.945-18.332 0-5.037 5.089-5.037 13.371-.006 18.46.856.866 2.075 1.832 3.494 2.804H6.25c-3.444 0-6.25 2.818-6.25 6.275V46.94c0 1.731 1.4 3.137 3.125 3.137H6.25v37.648C6.25 91.182 9.056 94 12.5 94h75c3.444 0 6.25-2.818 6.25-6.275V50.077h3.125A3.133 3.133 0 0 0 100 46.94V31.253c0-3.457-2.806-6.275-6.25-6.275zM26.969 8.137a6.623 6.623 0 0 1 4.737-1.982c1.781 0 3.463.702 4.732 1.982 4.212 4.255 8.4 15.122 6.943 16.634 0 0-.262.207-1.156.207-4.319 0-12.563-4.505-15.256-7.228-2.619-2.648-2.619-6.965 0-9.613zm19.906 79.588H12.5V50.077h34.375v37.648zm0-43.922H6.25v-12.55h40.625v12.55zM63.563 8.137c2.537-2.553 6.937-2.547 9.468 0 2.619 2.648 2.619 6.965 0 9.613-2.694 2.723-10.937 7.228-15.256 7.228-.894 0-1.156-.2-1.163-.207-1.45-1.512 2.738-12.379 6.951-16.634zM87.5 87.725H53.125V50.077H87.5v37.648zm6.25-43.922H53.125v-12.55H93.75v12.55z"/>
</svg>
