<svg xmlns="http://www.w3.org/2000/svg" width="70" height="76">
    <path fill="#1173D4" fill-rule="evenodd" d="M69.075 7.747l-12.038 3.622v6.833h10.37c.716 0 1.296.582 1.296 1.3V74.7c0 .718-.58 1.3-1.296 1.3a1.298 1.298 0 0 1-1.296-1.3V20.802H47.963v15.6c0 .717-.581 1.299-1.297 1.299H31.111v15.6c0 .718-.58 1.299-1.296 1.299H12.963v20.1c0 .718-.581 1.3-1.296 1.3a1.299 1.299 0 0 1-1.297-1.3V53.301c0-.718.581-1.3 1.297-1.3h16.851V36.402c0-.719.581-1.301 1.297-1.301H45.37V19.502c0-.718.581-1.3 1.296-1.3h7.778v-16.9A1.294 1.294 0 0 1 56.223.095l12.963 5.199a1.3 1.3 0 0 1-.111 2.453zM57.037 3.222v5.433l7.739-2.329-7.739-3.104zM41.861 15.221l-1.676-1.681v12.462c0 .717-.58 1.299-1.296 1.299H20.741v16.9c0 .718-.581 1.3-1.297 1.3H2.593V65.6c0 .718-.581 1.3-1.297 1.3A1.298 1.298 0 0 1 0 65.6V44.201c0-.718.58-1.3 1.296-1.3h16.852V26.002c0-.719.581-1.301 1.296-1.301h18.148V13.54l-1.678 1.681a1.295 1.295 0 0 1-1.801 0 1.304 1.304 0 0 1-.032-1.839l3.889-3.899c.112-.11.244-.198.389-.26.04-.018.08-.03.121-.044.107-.037.218-.058.33-.064.048-.007.088-.007.129-.007.141.004.281.031.413.081.011.008.023.008.033.008.142.063.271.151.381.26.012.01.028.014.039.026l3.889 3.899a1.304 1.304 0 0 1 0 1.807 1.294 1.294 0 0 1-1.833.032zM1.296 69.5c.716 0 1.297.582 1.297 1.3v3.9c0 .718-.581 1.3-1.297 1.3A1.298 1.298 0 0 1 0 74.7v-3.9c0-.718.58-1.3 1.296-1.3zm15.556-12.3h10.37c.716 0 1.296.583 1.296 1.3 0 .718-.58 1.3-1.296 1.3h-10.37a1.298 1.298 0 0 1-1.296-1.3c0-.717.58-1.3 1.296-1.3zM35 40.301h10.37c.716 0 1.296.582 1.296 1.3 0 .718-.58 1.3-1.296 1.3H35a1.298 1.298 0 0 1-1.296-1.3c0-.718.58-1.3 1.296-1.3zm16.852-16.899h10.37c.716 0 1.296.581 1.296 1.299s-.58 1.301-1.296 1.301h-10.37a1.3 1.3 0 0 1 0-2.6z"/>
</svg>
