<svg xmlns="http://www.w3.org/2000/svg" width="73" height="73">
    <path fill="#1173D4" fill-rule="evenodd" d="M70.281 41.488l-1.827-1.581c1.583-2.069 2.314-4.502 2.193-7.057V12.167a2.442 2.442 0 0 0-2.436-2.434H43.85V25.55h14.616c4.751 0 8.526 3.772 8.526 8.517h-2.436c0-3.407-2.679-6.084-6.09-6.084H43.85c0 2.677-2.193 4.867-4.873 4.867H17.296c-2.558 0-4.75 1.825-5.116 4.38v.486H9.744v-.729c.488-3.772 3.776-6.57 7.552-6.57h21.681a2.443 2.443 0 0 0 2.437-2.434V4.867a2.443 2.443 0 0 0-2.437-2.434H4.872a2.442 2.442 0 0 0-2.436 2.434v26.766c0 4.259 1.462 7.057 4.263 8.882l-1.218 2.068C1.827 40.394 0 36.743 0 31.633V4.867C0 2.19 2.193 0 4.872 0h34.105c2.68 0 4.873 2.19 4.873 4.867V7.3h24.361c2.679 0 4.872 2.19 4.75 4.867V32.85c.243 3.163-.731 6.205-2.68 8.638zM6.09 18.25v-2.433h2.436v2.433H6.09zm0-7.3h7.309v2.433H6.09V10.95zm4.872 4.867h9.745v2.433h-9.745v-2.433zM6.09 6.083h25.579v2.434H6.09V6.083zM34.105 18.25H23.143v-2.433h10.962v2.433zm-18.27-7.3h18.27v2.433h-18.27V10.95zm-2.436 51.1c1.948 0 3.532-1.46 3.654-3.407a12.352 12.352 0 0 1-6.334-6.326c-2.68-6.205.122-13.384 6.334-16.06 6.212-2.677 13.398.121 16.078 6.326 2.68 6.205-.122 13.384-6.334 16.06.122 1.947 1.705 3.407 3.654 3.407 3.411 0 6.09 2.677 5.968 6.083V73h-2.436v-4.867c0-2.068-1.583-3.65-3.654-3.65-3.41 0-6.09-2.676-6.09-6.083v-.608c0-.487.366-.974.853-1.095 3.532-1.217 5.968-4.259 6.455-7.909h-8.404c-.244 0-.487-.121-.731-.243l-2.923-1.947-2.924 1.947c-.243.122-.487.243-.73.243H12.18c.488 3.65 3.046 6.692 6.456 7.909.487.121.853.608.853 1.095v.608c0 3.407-2.68 6.083-6.09 6.083-2.071 0-3.655 1.582-3.655 3.65V73H7.308v-4.867c0-3.406 2.68-6.083 6.091-6.083zm2.07-15.817l3.411-2.19c.365-.243.974-.243 1.339 0l3.289 2.19h8.039c-.487-4.38-4.019-7.786-8.404-8.395-5.359-.73-10.232 3.042-10.841 8.395h3.167zM68.211 21.9H57.248v-2.433h10.963V21.9zm0-4.867H51.158V14.6h17.053v2.433zM46.286 14.6h2.436v2.433h-2.436V14.6zm8.526 7.3h-8.526v-2.433h8.526V21.9zM41.414 35.283H56.03a10.91 10.91 0 0 1 10.962 10.95v.852c.122 4.988-2.679 9.612-7.308 11.558 0 .73.366 2.19 3.654 2.19 3.411 0 6.09 2.677 6.09 6.083V73h-2.436v-6.084c0-2.068-1.583-3.649-3.654-3.649-3.776 0-6.09-1.825-6.09-4.867v-.73c0-.487.366-.973.853-1.095 3.897-1.338 6.455-4.989 6.455-9.125H51.158c-2.193 0-4.263-.608-5.969-1.704-.121.487-.121 1.096-.121 1.704 0 4.136 2.558 7.787 6.455 9.247.488.121.853.608.853 1.095v.608c0 3.042-2.314 4.867-6.09 4.867-2.071 0-3.654 1.581-3.654 3.649V73h-2.437v-6.084c0-3.406 2.68-6.083 6.091-6.083 3.288 0 3.654-1.46 3.654-2.19-4.385-1.946-7.308-6.326-7.308-11.193 0-1.217.243-2.312.487-3.528a10.92 10.92 0 0 1-2.924-7.422c0-.73.488-1.217 1.219-1.217zm9.744 9.733h13.277c-.61-4.136-4.142-7.3-8.405-7.3H42.753c.609 4.137 4.142 7.3 8.405 7.3z"/>
</svg>
