<svg xmlns="http://www.w3.org/2000/svg" width="66" height="74">
    <path fill="#1173D4" fill-rule="evenodd" d="M64.731 33.3h-8.885c-.701 0-1.269-.553-1.269-1.234 0-.681.568-1.233 1.269-1.233h8.885c.701 0 1.269.552 1.269 1.233s-.568 1.234-1.269 1.234zM50.052 17.241l-.031.03a1.296 1.296 0 0 1-1.795-.03 1.21 1.21 0 0 1 .031-1.744l6.283-6.105.031-.031a1.296 1.296 0 0 1 1.795.031 1.21 1.21 0 0 1-.031 1.744l-6.283 6.105zm-.217 19.313a43.228 43.228 0 0 1-2.964 5.42c-2.598 4.399-6.522 11.052-6.522 13.526 0 .681-.568 1.233-1.269 1.233H26.92c-.701 0-1.269-.552-1.269-1.233 0-2.474-3.924-9.127-6.522-13.526a43.228 43.228 0 0 1-2.964-5.42 18.605 18.605 0 0 1-.934-5.436c.028-9.515 7.977-17.213 17.769-17.207 9.792-.006 17.741 7.692 17.769 17.207a18.6 18.6 0 0 1-.934 5.436zM33 16.318c-8.412 0-15.231 6.626-15.231 14.8.043 1.578.313 3.143.802 4.648a51.095 51.095 0 0 0 2.766 4.981c3.273 5.546 6.056 10.436 6.713 13.519h9.906c.658-3.083 3.44-7.973 6.713-13.524a51.057 51.057 0 0 0 2.76-4.976c.489-1.505.759-3.07.802-4.648 0-8.174-6.819-14.8-15.231-14.8zm3.752 34.611c-.206.651-.917 1.017-1.587.817-.67-.201-1.046-.891-.84-1.542l4.352-13.743-5.276 1.708c-.26.085-.542.085-.802 0l-5.276-1.708 4.352 13.743c.206.651-.17 1.341-.84 1.542-.671.2-1.381-.166-1.587-.817l-5.077-16.034a1.202 1.202 0 0 1 .009-.75c.222-.647.941-.996 1.606-.781L33 35.7l7.214-2.336c.251-.081.521-.084.773-.009.671.2 1.047.889.842 1.54l-5.077 16.034zM33 11.1c-.701 0-1.269-.552-1.269-1.233V1.233C31.731.552 32.299 0 33 0s1.269.552 1.269 1.233v8.634c0 .681-.568 1.233-1.269 1.233zm-16.155 6.502a1.277 1.277 0 0 1-.897-.361l-6.283-6.105-.031-.031a1.21 1.21 0 0 1 .031-1.744 1.296 1.296 0 0 1 1.795.031l6.283 6.105c.237.231.371.545.371.871 0 .682-.568 1.234-1.269 1.234zm-5.422 14.464c0 .681-.568 1.234-1.269 1.234H1.269C.568 33.3 0 32.747 0 32.066c0-.681.568-1.233 1.269-1.233h8.885c.701 0 1.269.552 1.269 1.233zm4.525 14.826a1.297 1.297 0 0 1 1.763 0 1.21 1.21 0 0 1 .032 1.744l-6.283 6.105a1.296 1.296 0 0 1-1.795.001 1.209 1.209 0 0 1 0-1.744l6.283-6.106zm11.848 12.314l10.154-.987c.697-.068 1.32.426 1.39 1.104.07.678-.439 1.282-1.136 1.351l-10.154.986c-.043.006-.085.006-.127.006-.652 0-1.198-.479-1.263-1.109-.07-.678.439-1.283 1.136-1.351zm0 3.7l10.154-.987c.697-.068 1.32.426 1.39 1.104.07.678-.439 1.283-1.136 1.35l-10.154.987c-.043.006-.085.006-.127.006-.652 0-1.198-.479-1.263-1.109-.07-.678.439-1.283 1.136-1.351zm0 3.7l10.154-.987c.697-.068 1.32.426 1.39 1.104.07.678-.439 1.282-1.136 1.35l-10.154.987c-.043.007-.085.007-.127.007-.652 0-1.198-.48-1.263-1.111-.07-.678.439-1.282 1.136-1.35zm.762 3.955l1.735.972h5.414l1.735-.972a1.29 1.29 0 0 1 1.735.453c.351.59.142 1.345-.465 1.686l-2.031 1.136a1.311 1.311 0 0 1-.635.164h-6.092c-.223 0-.442-.057-.635-.164L27.288 72.7a1.216 1.216 0 0 1-.465-1.686 1.29 1.29 0 0 1 1.735-.453zm21.494-23.669l6.283 6.106a1.208 1.208 0 0 1 0 1.713 1.295 1.295 0 0 1-1.795.03l-6.283-6.105a1.21 1.21 0 0 1 0-1.744 1.297 1.297 0 0 1 1.795 0z"/>
</svg>
