<svg xmlns="http://www.w3.org/2000/svg" width="76" height="74">
    <path fill="#1173D4" fill-rule="evenodd" d="M62.034 74c-6.73 0-13.967-1.601-13.967-5.116V38.189c0-3.515 7.237-5.116 13.967-5.116 6.729 0 13.966 1.601 13.966 5.116v30.695C76 72.399 68.763 74 62.034 74zm0-38.369c-7.417 0-11.223 1.861-11.428 2.573v.008c.205.673 4.011 2.535 11.428 2.535 7.364 0 11.173-1.834 11.427-2.558-.254-.724-4.063-2.558-11.427-2.558zm11.427 5.662c-2.701 1.366-7.165 2.012-11.427 2.012-4.263 0-8.726-.646-11.428-2.011v2.011c.192.691 4 2.558 11.428 2.558 7.427 0 11.235-1.867 11.427-2.577v-1.993zm0 5.116c-2.701 1.366-7.165 2.012-11.427 2.012-4.263 0-8.726-.646-11.428-2.011v2.011c.192.69 4 2.558 11.428 2.558 7.427 0 11.235-1.868 11.427-2.578v-1.992zm0 5.116c-2.701 1.366-7.165 2.012-11.427 2.012-4.263 0-8.726-.64-11.428-2.011v2.011c.192.69 4 2.558 11.428 2.558 7.427 0 11.235-1.868 11.427-2.578v-1.992zm0 5.116c-2.701 1.365-7.165 2.012-11.427 2.012-4.263 0-8.726-.64-11.428-2.011v2.011c.192.69 4 2.558 11.428 2.558 7.427 0 11.235-1.868 11.427-2.578v-1.992zm0 5.116c-2.701 1.365-7.165 2.011-11.427 2.011-4.263 0-8.726-.639-11.428-2.01v2.01c.192.691 4 2.558 11.428 2.558 7.427 0 11.235-1.867 11.427-2.577v-1.992zm0 5.115c-2.701 1.366-7.165 2.012-11.427 2.012-4.263 0-8.726-.639-11.428-2.011v2.011c.192.691 4 2.558 11.428 2.558 7.427 0 11.235-1.867 11.427-2.577v-1.993zM41.719 29.42h10.077c.601 0 1.088.49 1.088 1.095 0 .606-.487 1.096-1.088 1.096H41.719c-.601 0-1.089-.49-1.089-1.096 0-.605.488-1.095 1.089-1.095zm-10.158.072c6.171 0 11.173 5.039 11.173 11.255 0 6.216-5.002 11.255-11.173 11.255-6.168-.007-11.167-5.041-11.173-11.255 0-6.216 5.002-11.255 11.173-11.255zm0 20.464c5.049 0 9.142-4.123 9.142-9.209 0-5.086-4.093-9.208-9.142-9.208-5.046.005-9.136 4.125-9.142 9.208 0 5.086 4.093 9.209 9.142 9.209zm.635-7.93h-1.27c-1.665.081-3.083-1.207-3.174-2.884a2.97 2.97 0 0 1 2.539-2.814v-.057c0-.706.569-1.279 1.27-1.279.701 0 1.27.573 1.27 1.279H34.1c.702 0 1.27.573 1.27 1.278 0 .707-.568 1.28-1.27 1.28h-3.174c-.395 0-.635.222-.635.319 0 .098.24.32.635.32h1.27c1.665-.081 3.083 1.207 3.174 2.884a2.97 2.97 0 0 1-2.539 2.814v.057c0 .707-.569 1.279-1.27 1.279-.701 0-1.27-.572-1.27-1.279h-1.269c-.701 0-1.27-.572-1.27-1.279 0-.706.569-1.279 1.27-1.279h3.174c.395 0 .635-.222.635-.319 0-.098-.24-.32-.635-.32zm-20.39 7.855h9.598c.601 0 1.088.491 1.088 1.096 0 .606-.487 1.097-1.088 1.097H11.325c-.306 0-.598-.13-.804-.357l-5.158-5.684a1.102 1.102 0 0 1-.285-.739v-9.096c0-.329.116-.646.328-.896l5.671-5.572c.204-.2.478-.311.762-.31h9.565c.601 0 1.088.49 1.088 1.095 0 .606-.487 1.096-1.088 1.096h-9.123l-5.025 4.944v8.313l4.55 5.013zm52.767-19.549h-.003a1.09 1.09 0 0 1-1.085-1.095v-2.741H2.177v28.502h42.081c.601 0 1.088.491 1.088 1.097 0 .605-.487 1.096-1.088 1.096H1.086a1.09 1.09 0 0 1-1.085-1.096V25.4v-.003c0-.605.488-1.094 1.088-1.094H64.575a1.091 1.091 0 0 1 1.086 1.097v3.839a1.09 1.09 0 0 1-1.088 1.093zm-7.617-8.952c-.081 0-.161-.009-.24-.027L6.993 10.084 4.691 20.521a1.089 1.089 0 0 1-1.299.833 1.097 1.097 0 0 1-.827-1.308l2.54-11.511c.063-.284.236-.532.48-.687.244-.156.539-.207.821-.144l50.787 11.511c.496.112.848.555.849 1.067a1.092 1.092 0 0 1-1.086 1.098zm-6.77-6.479L20.655 2.506l-2.084 4.2v-.002c-.01.021-.02.043-.032.064a1.088 1.088 0 0 1-1.48.444 1.104 1.104 0 0 1-.441-1.491l2.54-5.115a1.086 1.086 0 0 1 1.396-.523l30.473 12.789c.556.234.818.878.586 1.438-.232.56-.871.824-1.427.591z"/>
</svg>
