<svg xmlns="http://www.w3.org/2000/svg" width="73" height="73">
    <path fill="#1173D4" fill-rule="evenodd" d="M71.783 72.999a1.217 1.217 0 0 1-1.216-1.216v-40.15H57.183a1.217 1.217 0 0 1 0-2.433h13.384v-1.217a1.216 1.216 0 0 1 2.433 0v43.8c0 .671-.545 1.216-1.217 1.216zM54.749 23.117c-.213 0-.43-.056-.626-.174L36.5 12.369 18.877 22.943a1.217 1.217 0 0 1-1.254-2.086l17.66-10.595V1.216C35.283.545 35.828 0 36.5 0h8.517c.671 0 1.216.545 1.216 1.216v4.867c0 .672-.545 1.217-1.216 1.217H40.15a1.217 1.217 0 0 1 0-2.433h3.65V2.433h-6.083v7.829l17.66 10.595a1.218 1.218 0 0 1-.628 2.26zm-38.932 8.516H2.433v9.733a1.217 1.217 0 1 1-2.433 0V27.983a1.216 1.216 0 0 1 2.433 0V29.2h13.384a1.217 1.217 0 0 1 0 2.433zM6.083 43.8c6.014 0 6.084 15.659 6.084 15.817 0 2.938-2.094 5.394-4.867 5.96v6.206a1.217 1.217 0 0 1-2.433 0v-6.206C2.094 65.011 0 62.555 0 59.617 0 59.459.069 43.8 6.083 43.8zm0 19.466a3.653 3.653 0 0 0 3.65-3.649c0-6.061-1.628-13.384-3.65-13.384-2.022 0-3.65 7.323-3.65 13.384a3.654 3.654 0 0 0 3.65 3.649zm2.434-21.9A1.216 1.216 0 0 1 7.3 40.15v-2.433c0-.672.545-1.217 1.217-1.217h4.866c.672 0 1.217.545 1.217 1.217v7.3a1.217 1.217 0 0 1-2.433 0v-6.084H9.733v1.217c0 .672-.545 1.216-1.216 1.216zm10.95 20.684V26.767a1.217 1.217 0 1 1 2.433 0V62.05a1.216 1.216 0 0 1-2.433 0zM32.85 31.633h-4.867a1.217 1.217 0 0 1-1.216-1.216v-7.3c0-.672.545-1.217 1.216-1.217h4.867c.672 0 1.217.545 1.217 1.217v7.3c0 .671-.545 1.216-1.217 1.216zm-1.217-7.3H29.2V29.2h2.433v-4.867zm2.434 20.684c0 .671-.545 1.216-1.217 1.216h-4.867a1.217 1.217 0 0 1-1.216-1.216v-7.301c0-.671.545-1.216 1.216-1.216h4.867c.672 0 1.217.545 1.217 1.216v7.301zm-2.434-6.084H29.2V43.8h2.433v-4.867zm13.384-7.3H40.15a1.217 1.217 0 0 1-1.217-1.216v-7.3c0-.672.545-1.217 1.217-1.217h4.867c.671 0 1.216.545 1.216 1.217v7.3c0 .671-.545 1.216-1.216 1.216zm-1.217-7.3h-2.433V29.2H43.8v-4.867zm2.433 20.684c0 .671-.545 1.216-1.216 1.216H40.15a1.217 1.217 0 0 1-1.217-1.216v-7.301c0-.671.545-1.216 1.217-1.216h4.867c.671 0 1.216.545 1.216 1.216v7.301zM43.8 38.933h-2.433V43.8H43.8v-4.867zm7.3 23.117v-36.5a1.217 1.217 0 0 1 2.433 0v36.5a1.216 1.216 0 0 1-2.433 0zm7.3 4.867c0 .671-.545 1.216-1.217 1.216H15.817a1.217 1.217 0 0 1 0-2.433h10.95V53.534H25.55a1.218 1.218 0 0 1 0-2.434h21.9a1.218 1.218 0 0 1 0 2.434h-1.217V65.7h10.95c.672 0 1.217.545 1.217 1.217zm-23.117-6.084a1.217 1.217 0 0 1 0-2.433v-4.867H29.2V65.7h6.083v-4.867zm8.517-7.299h-6.083V58.4a1.217 1.217 0 0 1 0 2.433V65.7H43.8V53.534zM10.95 70.566h51.1a1.218 1.218 0 0 1 0 2.434h-51.1a1.218 1.218 0 0 1 0-2.434zM64.483 47.45h-4.866a1.217 1.217 0 0 1-1.217-1.217v-7.3c0-.671.545-1.217 1.217-1.217h4.866c.672 0 1.217.546 1.217 1.217v7.3c0 .672-.545 1.217-1.217 1.217zm-1.216-7.3h-2.434v4.867h2.434V40.15zM58.4 60.833v-7.3c0-.671.545-1.216 1.217-1.216h4.866c.672 0 1.217.545 1.217 1.216v7.3c0 .672-.545 1.217-1.217 1.217h-4.866a1.217 1.217 0 0 1-1.217-1.217zm2.433-1.216h2.434V54.75h-2.434v4.867z"/>
</svg>
