<svg xmlns="http://www.w3.org/2000/svg" width="73" height="107">
    <path fill="#FFF" fill-rule="evenodd" d="M36.5 107C16.374 107 0 90.532 0 70.29c0-8.059 1.83-16.747 5.439-25.821 2.849-7.163 6.811-14.593 11.776-22.084C25.635 9.682 33.947 1.274 34.296.923a3.104 3.104 0 0 1 3.397-.68 3.135 3.135 0 0 1 1.924 2.896V29.41c0 3.826 3.094 6.938 6.898 6.938 3.803 0 6.898-3.112 6.898-6.938 0-1.407.932-2.641 2.28-3.019a3.109 3.109 0 0 1 3.504 1.398C68.355 43.034 73 57.333 73 70.29 73 90.532 56.626 107 36.5 107zm20.743-69.982c-2.379 3.385-6.302 5.599-10.729 5.599-7.24 0-13.131-5.924-13.131-13.207V11.27c-3.056 3.606-7.068 8.678-11.049 14.695C14.989 37.067 6.233 53.767 6.233 70.29c0 16.785 13.578 30.441 30.267 30.441S66.766 87.075 66.766 70.29c0-10.128-3.2-21.297-9.523-33.272zM54.18 72.61a3.127 3.127 0 0 1-3.117-3.135v-5.862L35.544 79.221a3.106 3.106 0 0 1-4.408 0l-7.237-7.28-4.879 4.906a3.105 3.105 0 0 1-4.408 0 3.147 3.147 0 0 1 .001-4.433l7.082-7.123a3.105 3.105 0 0 1 4.407 0l7.238 7.28L46.656 59.18h-5.83a3.127 3.127 0 0 1-3.116-3.136 3.126 3.126 0 0 1 3.117-3.133H54.18a3.125 3.125 0 0 1 3.117 3.134v13.43a3.126 3.126 0 0 1-3.117 3.135z"/>
</svg>
